<?xml version="1.0" encoding="UTF-8"?>
<svg width="348px" height="131px" viewBox="0 0 348 131" version="1.1" xmlns="http://www.w3.org/2000/svg" xmlns:xlink="http://www.w3.org/1999/xlink">
    <!-- Generator: Sketch 62 (91390) - https://sketch.com -->
    <title>Group 2</title>
    <desc>Created with Sketch.</desc>
    <g id="Page-1" stroke="none" stroke-width="1" fill="none" fill-rule="evenodd">
        <g id="Artboard" transform="translate(-1231.000000, -875.000000)" fill="#212121">
            <g id="Group-2" transform="translate(1193.276181, 864.762458)">
                <g id="Group" transform="translate(181.931696, 41.919164) rotate(15.000000) translate(-181.931696, -41.919164) translate(149.431696, 13.419164)" stroke="#FFFFFF">
                    <path d="M25.0345038,49.4626399 C24.2271737,50.5723617 23.4844975,51.8607021 22.4734136,53.0101441 C21.1766547,54.4843534 19.4352916,55.7293457 17.4145876,56.5457631 C13.9543523,57.9437889 9.6800543,58.0981076 5.5648524,56.0558911 C0.208604624,53.3977911 -1.94682428,49.3557251 -2.53199428,45.2153465 C-3.33593368,39.5270619 -0.748118715,33.4960442 0.571182174,30.9598982 C-0.640336012,26.7980338 -2.83849976,19.3475628 4.69099673,9.89038526 C7.82934659,5.94856367 19.4907439,3.97492954 25.53416,3.27000989 C26.6729857,3.13717432 27.5111133,3.06600031 27.8350668,2.97919725 C31.0147925,0.67358393 39.8276787,-4.86257238 48.7901759,-2.07598789 C54.1254941,-0.417151678 57.4054421,4.69490912 59.2513445,7.88481473 C59.5523168,8.40492522 59.7595738,8.84275217 59.9524404,9.06113968 C60.0577565,9.18039168 60.3141303,9.15483931 60.5078066,9.24699828 C62.9620983,10.4148491 66.3682693,12.1013964 67.9250896,17.9115291 C69.0730026,22.1955985 67.9175029,25.5389516 65.5683839,27.9728922 C63.6783641,29.9311566 60.8280341,31.3049366 57.4884126,31.8685081 C56.3108487,36.4215863 49.9497991,43.2316218 42.6394355,47.3553289 C39.5204309,49.1147299 36.2877592,50.375943 33.3622385,50.8324492 C30.1640769,51.3314991 27.3001375,50.8808017 25.0345038,49.4626399 Z" id="Path-32" stroke-width="7"></path>
                    <path d="M36.7982968,55.8320994 C35.3577127,58.1815567 34.27925,58.9841791 32.1946887,59.0569736 C31.060245,59.0965892 29.8897418,58.7449862 28.7581109,57.752631 C28.1023932,57.1776159 27.4233427,56.3274075 26.7826383,55.1487947 C25.8321417,53.4003012 24.8822182,50.7696964 23.9839279,47.2347804 C23.9280589,47.014927 23.8740354,46.7980518 23.8219195,46.5836198 C23.8619534,46.3225576 23.9112442,46.0666491 23.9695989,45.8159035 C24.9106266,41.7723851 28.5593158,37.5649277 35.624586,33.5859692 C42.5216242,29.7017542 48.4008108,28.6611875 53.2459728,29.982691 C53.5434724,30.0638331 53.8398091,30.1546267 54.1341568,30.2554569 C54.3193025,30.4597483 54.5067025,30.6683018 54.6963486,30.8811272 C57.4705988,33.9944585 59.391912,36.5253885 60.4936851,38.4514664 C61.2102845,39.7041983 61.6181031,40.7747002 61.7905863,41.6386928 C62.1342547,43.3601757 61.7144264,44.5981159 61.0136453,45.5089349 C60.2420341,46.5118132 59.2791697,47.0382393 58.0346458,47.207031 C57.2909001,47.3079034 56.3559156,47.2270137 55.1920099,47.0547506 C53.0578527,46.7388861 49.6615293,46.2600036 44.4031163,49.1293558 C39.2439303,51.9445629 37.7126605,54.340858 36.7982968,55.8320994 Z" id="Path-31" stroke-width="6" stroke-linejoin="round"></path>
                </g>
                <text id="Superchef" font-family="Pacifico-Regular, Pacifico" font-size="80" font-weight="normal" letter-spacing="1.6">
                    <tspan x="36.4038186" y="104.237542">Superchef</tspan>
                </text>
            </g>
        </g>
    </g>
</svg>